<?xml version="1.0" standalone="no"?>
<!DOCTYPE svg PUBLIC "-//W3C//DTD SVG 20010904//EN"
 "http://www.w3.org/TR/2001/REC-SVG-20010904/DTD/svg10.dtd">
<svg version="1.0" xmlns="http://www.w3.org/2000/svg"
 width="256.000000pt" height="256.000000pt" viewBox="0 0 256.000000 256.000000"
 preserveAspectRatio="xMidYMid meet">
<metadata>
Created by potrace 1.11, written by Peter Selinger 2001-2013
</metadata>
<g transform="translate(0.000000,256.000000) scale(0.100000,-0.100000)"
fill="#000000" stroke="none">
<path d="M1970 2039 c-135 -77 -468 -268 -740 -424 -527 -302 -539 -310 -528
-320 7 -7 172 -37 432 -78 55 -9 105 -22 111 -29 6 -7 29 -123 49 -258 44
-283 45 -290 57 -290 4 0 26 30 47 68 60 103 396 685 626 1085 190 330 219
387 199 387 -5 0 -118 -63 -253 -141z"/>
<path d="M510 1707 c-201 -73 -363 -136 -362 -142 4 -9 57 -32 185 -79 l47
-18 0 -124 c0 -69 4 -124 9 -124 10 0 10 0 295 343 108 130 199 244 202 251 3
8 2 16 -3 19 -4 3 -172 -54 -373 -126z"/>
<path d="M1823 802 c-63 -51 -476 -393 -523 -435 l-35 -31 25 -7 c14 -4 73 -7
132 -8 l106 -1 37 -110 c20 -60 40 -112 45 -115 4 -3 12 1 17 8 5 6 67 171
138 365 85 236 125 356 118 363 -7 7 -27 -3 -60 -29z"/>
</g>
</svg>
